<svg xmlns="http://www.w3.org/2000/svg" width="2200" height="1400" viewBox="0 0 2200 1400">
  <defs>
    <radialGradient id="sun" cx="22%" cy="12%" r="60%">
      <stop offset="0%" stop-color="#C47C2C" stop-opacity="0.22"/>
      <stop offset="45%" stop-color="#C47C2C" stop-opacity="0.10"/>
      <stop offset="100%" stop-color="#C47C2C" stop-opacity="0"/>
    </radialGradient>

    <radialGradient id="canopy" cx="82%" cy="18%" r="65%">
      <stop offset="0%" stop-color="#22704C" stop-opacity="0.18"/>
      <stop offset="55%" stop-color="#22704C" stop-opacity="0.08"/>
      <stop offset="100%" stop-color="#22704C" stop-opacity="0"/>
    </radialGradient>

    <radialGradient id="ground" cx="50%" cy="92%" r="70%">
      <stop offset="0%" stop-color="#22704C" stop-opacity="0.10"/>
      <stop offset="70%" stop-color="#22704C" stop-opacity="0.03"/>
      <stop offset="100%" stop-color="#22704C" stop-opacity="0"/>
    </radialGradient>

    <linearGradient id="mist" x1="0" y1="0" x2="0" y2="1">
      <stop offset="0%" stop-color="#FFFFFF" stop-opacity="0.10"/>
      <stop offset="40%" stop-color="#FFFFFF" stop-opacity="0.04"/>
      <stop offset="100%" stop-color="#FFFFFF" stop-opacity="0"/>
    </linearGradient>

    <filter id="blur18" x="-20%" y="-20%" width="140%" height="140%">
      <feGaussianBlur stdDeviation="18"/>
    </filter>

    <filter id="softGlow" x="-30%" y="-30%" width="160%" height="160%">
      <feGaussianBlur stdDeviation="26" result="b"/>
      <feColorMatrix in="b" type="matrix"
        values="1 0 0 0 0
                0 1 0 0 0
                0 0 1 0 0
                0 0 0 0.75 0" result="g"/>
      <feMerge>
        <feMergeNode in="g"/>
        <feMergeNode in="SourceGraphic"/>
      </feMerge>
    </filter>
  </defs>

  <rect width="2200" height="1400" fill="none"/>

  <rect x="0" y="0" width="2200" height="1400" fill="url(#sun)"/>
  <rect x="0" y="0" width="2200" height="1400" fill="url(#canopy)"/>
  <rect x="0" y="0" width="2200" height="1400" fill="url(#ground)"/>

  <!-- Organic leaf blobs -->
  <g filter="url(#blur18)">
    <path d="M1680,70 C1950,90 2150,260 2170,470 C2195,730 1990,780 1845,740 C1690,700 1500,560 1505,380 C1510,210 1560,60 1680,70Z"
      fill="#22704C" fill-opacity="0.08"/>
    <path d="M160,240 C320,80 600,60 780,220 C980,400 860,650 650,690 C450,730 230,620 150,460 C90,340 95,295 160,240Z"
      fill="#22704C" fill-opacity="0.07"/>
    <path d="M760,980 C930,820 1240,800 1390,940 C1560,1095 1420,1280 1215,1300 C1010,1320 820,1200 735,1105 C690,1055 705,1028 760,980Z"
      fill="#C47C2C" fill-opacity="0.05"/>
  </g>

  <!-- Gentle top mist -->
  <rect x="0" y="0" width="2200" height="520" fill="url(#mist)" filter="url(#softGlow)"/>
</svg>
